<svg id="4bf44d86-aaac-4c10-ae58-f3d108077279" data-name="art" xmlns="http://www.w3.org/2000/svg" width="600" height="600" viewBox="0 0 600 600">
  <title>omh_hairdryer_01_v01</title>
  <path d="M370.355,305.374c-.94,11.89,0,47.7,0,47.7a13.4,13.4,0,0,1-13.4,13.4h-9.51a13.4,13.4,0,0,1-13.4-13.4s-.91-35.62,0-47.45c1.01-12.99,8.01-51.49,8.01-51.49l.1-.23a232.668,232.668,0,0,0,36.17,1.27C377.845,257.764,371.315,293.134,370.355,305.374Z" fill="#ccc"/>
  <path d="M369.7,305.375c-.94,11.89,0,47.7,0,47.7a13.4,13.4,0,0,1-13.4,13.4h-9.51a13.473,13.473,0,0,1-2.3-.2,13.409,13.409,0,0,0,11.08-13.2s-.94-35.81,0-47.7c.94-12,7.24-46.24,7.93-50.01v-.01c4.86.12,9.6.06,14.17-.18C377.188,257.765,370.658,293.135,369.7,305.375Z" fill="#b3b3b3"/>
  <path d="M346.818,366.475a14.454,14.454,0,0,1-1.99-.14,13.418,13.418,0,0,0,11.4-13.26s-.94-35.81,0-47.7c.94-12,7.24-46.24,7.93-50.01" fill="none" stroke="#4d4d4d" stroke-linecap="round" stroke-linejoin="round" stroke-width="3"/>
  <path d="M441.439,203.926c0,82.543-142.944,47.18-224.666,20.242V183.685C298.5,156.746,441.439,121.383,441.439,203.926Z" fill="#ccc"/>
  <path d="M441.27,199.165H216.77v-15.48a800.662,800.662,0,0,1,77.47-21.6H417.7C431.29,169.325,439.99,181.165,441.27,199.165Z" fill="#b3b3b3"/>
  <path d="M417.7,162.085H294.24C341.52,151.705,389.87,147.255,417.7,162.085Z" fill="#f2f2f2"/>
  <path d="M441.438,203.925c0,17.04-6.09,29.06-16.48,37.16v-74.32C435.348,174.865,441.438,186.885,441.438,203.925Z" fill="gray"/>
  <path d="M334.377,280.519a4.129,4.129,0,0,1-3.415-4.715l1.44-9.009a4.116,4.116,0,0,1,8.129,1.3l-1.44,9.01a4.129,4.129,0,0,1-4.714,3.415Z" fill="#d3232a"/>
  <path d="M331.817,296.625a4.952,4.952,0,0,1-4.1-5.654l.87-5.443a4.936,4.936,0,0,1,9.748,1.558l-.869,5.443a4.952,4.952,0,0,1-5.654,4.1Z" fill="#4d4d4d"/>
  <path d="M358.7,385.817H346.5l-3.1-19.458h18.4Z" fill="#4d4d4d" stroke="#4d4d4d" stroke-linecap="round" stroke-linejoin="round" stroke-width="5.257"/>
  <path d="M352.431,385.817c0,21.513-13.853,27.18-13.853,39.013,0,20.417,22.5,29.25,22.5,46.084,0,12.333-7.167,21.75-7.167,21.75" fill="none" stroke="#4d4d4d" stroke-linecap="round" stroke-linejoin="round" stroke-width="5.257"/>
  <path d="M342.038,254.019s-7,38.5-8.007,51.486c-.914,11.828,0,47.453,0,47.453a13.4,13.4,0,0,0,13.4,13.4h9.5a13.4,13.4,0,0,0,13.4-13.4s-.939-35.814,0-47.7c1-12.706,8.007-50.35,8.007-50.35" fill="none" stroke="#4d4d4d" stroke-linecap="round" stroke-linejoin="round" stroke-width="5.594"/>
  <path d="M279.119,165.6l1.671-.4c76.191-18.506,160.649-24.722,160.649,38.725,0,82.543-142.944,47.18-224.666,20.242V183.685c11.14-3.673,23.418-7.5,36.317-11.167l2.8-.792" fill="none" stroke="#4d4d4d" stroke-linecap="round" stroke-linejoin="round" stroke-width="5.594"/>
  <line x1="266.9" y1="168.727" x2="266.9" y2="168.727" fill="none" stroke="#4d4d4d" stroke-linecap="round" stroke-linejoin="round" stroke-width="5.594"/>
  <line x1="424.955" y1="166.77" x2="424.955" y2="241.08" fill="none" stroke="#4d4d4d" stroke-linecap="round" stroke-linejoin="round" stroke-width="5.594"/>
  <g>
    <line x1="202.356" y1="185.239" x2="152.835" y2="185.239" fill="none" stroke="#4d4d4d" stroke-linecap="round" stroke-linejoin="round" stroke-width="5.594"/>
    <g>
      <line x1="162.356" y1="197.364" x2="134.356" y2="197.364" fill="none" stroke="#4d4d4d" stroke-linecap="round" stroke-linejoin="round" stroke-width="5.594"/>
      <line x1="202.356" y1="197.364" x2="174.356" y2="197.364" fill="none" stroke="#4d4d4d" stroke-linecap="round" stroke-linejoin="round" stroke-width="5.594"/>
    </g>
    <line x1="202.356" y1="209.489" x2="147.148" y2="209.489" fill="none" stroke="#4d4d4d" stroke-linecap="round" stroke-linejoin="round" stroke-width="5.594"/>
    <line x1="202.356" y1="221.614" x2="146.273" y2="221.614" fill="none" stroke="#4d4d4d" stroke-linecap="round" stroke-linejoin="round" stroke-width="5.594"/>
    <path d="M146.273,249.864a14.125,14.125,0,0,1,0-28.25" fill="none" stroke="#4d4d4d" stroke-linecap="round" stroke-linejoin="round" stroke-width="5.594"/>
    <path d="M152.835,185.239a13.625,13.625,0,1,1,13.625-13.625" fill="none" stroke="#4d4d4d" stroke-linecap="round" stroke-linejoin="round" stroke-width="5.594"/>
  </g>
</svg>
