<svg id="b5b506f6-c730-424d-8b1d-f849445a9eb4" data-name="art" xmlns="http://www.w3.org/2000/svg" width="600" height="600" viewBox="0 0 600 600">
  <title>omh_kettle_01_v01</title>
  <path d="M352.241,408.105h-40.83V192.045a42.107,42.107,0,0,1,35.8,37.31l17.18,165.269A12.219,12.219,0,0,1,352.241,408.105Z" fill="#e6e6e6"/>
  <path d="M352.241,408.105h-40.83V192.045a42.107,42.107,0,0,1,35.8,37.31l17.18,165.269A12.219,12.219,0,0,1,352.241,408.105Z" fill="#ccc"/>
  <rect x="261.928" y="191.605" width="51.78" height="216.5" fill="#b3b3b3"/>
  <path d="M267.611,191.605v216.5h-45.5a12.213,12.213,0,0,1-12.15-13.481l13.19-126.969a93.114,93.114,0,0,0-5.31-42l-12.63-34.05Z" fill="#e6e6e6"/>
  <path d="M209.961,394.624a12.213,12.213,0,0,0,12.15,13.481h-18.8a12.213,12.213,0,0,1-12.15-13.481l13.19-126.969a93.114,93.114,0,0,0-5.31-42l-12.63-34.05h18.8l12.63,34.05a93.114,93.114,0,0,1,5.31,42Z" fill="#ccc"/>
  <path d="M352.241,408.105H203.311a12.213,12.213,0,0,1-12.15-13.481l13.194-126.969a93.093,93.093,0,0,0-5.313-42l-12.631-34.05h118.92a42.105,42.105,0,0,1,41.88,37.75l17.18,165.269A12.219,12.219,0,0,1,352.241,408.105Z" fill="none" stroke="#4d4d4d" stroke-linecap="round" stroke-linejoin="round" stroke-width="6"/>
  <line x1="192.447" y1="382.251" x2="363.194" y2="382.251" fill="none" stroke="#4d4d4d" stroke-linecap="round" stroke-linejoin="round" stroke-width="6"/>
  <path d="M235.408,187.728H341.735a52.594,52.594,0,0,1,52.024,44.87l9.046,60.917A52.616,52.616,0,0,1,360.211,353" fill="none" stroke="#4d4d4d" stroke-linecap="round" stroke-linejoin="round" stroke-width="10"/>
  <path d="M352.241,408.105H203.311a12.213,12.213,0,0,1-12.15-13.481l13.194-126.969a93.093,93.093,0,0,0-5.313-42l-12.631-34.05h118.92a42.105,42.105,0,0,1,41.88,37.75l17.18,165.269A12.219,12.219,0,0,1,352.241,408.105Z" fill="none" stroke="#4d4d4d" stroke-linecap="round" stroke-linejoin="round" stroke-width="6"/>
  <polyline points="363.191 382.254 363.101 382.254 192.451 382.254" fill="none" stroke="#4d4d4d" stroke-linecap="round" stroke-linejoin="round" stroke-width="6"/>
  <path d="M352.241,408.105H203.311a12.213,12.213,0,0,1-12.15-13.481l1.29-12.37H363.1l1.29,12.37A12.219,12.219,0,0,1,352.241,408.105Z" fill="#4d4d4d" opacity="0.3"/>
  <rect x="301.725" y="237.632" width="19.372" height="121.335" fill="#4d4d4d"/>
  <line x1="358.62" y1="315.617" x2="378.396" y2="315.617" fill="none" stroke="#4d4d4d" stroke-linecap="round" stroke-linejoin="round" stroke-width="10"/>
  <g>
    <path d="M194.735,184.022l-14.814-36.656a12.933,12.933,0,0,1-5.453,2.726,13.131,13.131,0,1,1-2.415-25.905,17.192,17.192,0,0,1-.862-2.689,17.609,17.609,0,0,1,32.827-12.025,16.218,16.218,0,1,1,13.71,28.551c-.374.086-.736.157-1.113.217l2.879,35.941" fill="none" stroke="#4d4d4d" stroke-linecap="round" stroke-linejoin="round" stroke-width="5"/>
    <path d="M205.982,115.419a12.1,12.1,0,0,1,8.93-2.491" fill="none" stroke="#4d4d4d" stroke-linecap="round" stroke-linejoin="round" stroke-width="2"/>
    <path d="M171.188,121.5a17.611,17.611,0,1,1,34.6-1.662" fill="none" stroke="#4d4d4d" stroke-linecap="round" stroke-linejoin="round" stroke-width="5"/>
    <path d="M177.647,118.1a11.019,11.019,0,0,1,11.991-11.654" fill="none" stroke="#4d4d4d" stroke-linecap="round" stroke-linejoin="round" stroke-width="2"/>
    <path d="M174.473,150.1a13.133,13.133,0,1,1,4.535-23.544" fill="none" stroke="#4d4d4d" stroke-linecap="round" stroke-linejoin="round" stroke-width="5"/>
    <path d="M166.815,143.014a7.007,7.007,0,0,1,2.674-12.376" fill="none" stroke="#4d4d4d" stroke-linecap="round" stroke-linejoin="round" stroke-width="2"/>
    <line x1="196.54" y1="152.502" x2="201.4" y2="169.179" fill="none" stroke="#4d4d4d" stroke-linecap="round" stroke-linejoin="round" stroke-width="2"/>
    <line x1="202.94" y1="138.609" x2="208.544" y2="172.5" fill="none" stroke="#4d4d4d" stroke-linecap="round" stroke-linejoin="round" stroke-width="2"/>
  </g>
</svg>
