<svg id="cd9b9165-ea45-4ad2-8dc5-b5fb395aae85" data-name="art" xmlns="http://www.w3.org/2000/svg" width="600" height="600" viewBox="0 0 600 600">
  <title>omh_tea_01_v01</title>
  <g>
    <path d="M370.17,272.315l-2.86,50.49a5.37,5.37,0,0,1-5.36,5.06h-2.49l-8.1,104.16a3.677,3.677,0,0,1-2.8,3.34l-3.87,45.82a5.712,5.712,0,0,1-5.57,5.35H260.88a5.7,5.7,0,0,1-5.57-5.35l-3.87-45.82a3.688,3.688,0,0,1-2.81-3.34l-8.09-104.16h-2.5a5.361,5.361,0,0,1-5.35-5.06l-2.86-50.49a5.529,5.529,0,0,1,5.52-5.85H364.64A5.537,5.537,0,0,1,370.17,272.315Z" fill="#ccc"/>
    <path d="M306.79,266.465v221.5h-10.5a24.006,24.006,0,0,1-24-24v-28.5h-3v-107.6h-3v-61.4Z" fill="#f5f5f5" style="isolation: isolate"/>
    <path d="M338.34,266.465v61.4h-3v107.6h-3v28.5a24.006,24.006,0,0,1-24,24h-1.5v-221.5Z" fill="#e0e0e0" style="isolation: isolate"/>
    <line x1="240.54" y1="326.865" x2="359.46" y2="326.865" fill="none" stroke="#4d4d4d" stroke-linecap="round" stroke-linejoin="round" stroke-width="3"/>
    <line x1="251.44" y1="434.365" x2="348.56" y2="434.365" fill="none" stroke="#4d4d4d" stroke-linecap="round" stroke-linejoin="round" stroke-width="3"/>
    <path d="M370.17,272.315l-2.86,50.49a5.37,5.37,0,0,1-5.36,5.06h-2.49l-8.1,104.16a3.677,3.677,0,0,1-2.8,3.34l-3.87,45.82a5.712,5.712,0,0,1-5.57,5.35H260.88a5.7,5.7,0,0,1-5.57-5.35l-3.87-45.82a3.688,3.688,0,0,1-2.81-3.34l-8.09-104.16h-2.5a5.361,5.361,0,0,1-5.35-5.06l-2.86-50.49a5.529,5.529,0,0,1,5.52-5.85H364.64A5.537,5.537,0,0,1,370.17,272.315Z" fill="none" stroke="#4d4d4d" stroke-linecap="round" stroke-linejoin="round" stroke-width="6"/>
    <path d="M314.14,388.965h-24.6a2.946,2.946,0,0,1-3-3v-28a3.371,3.371,0,0,1,.5-1.7l4.6-6.6a3.127,3.127,0,0,1,2.5-1.3h15.4a3.127,3.127,0,0,1,2.5,1.3l4.6,6.8a3.371,3.371,0,0,1,.5,1.7v27.7A3.031,3.031,0,0,1,314.14,388.965Z" fill="#d3232a"/>
    <line x1="301.84" y1="355.699" x2="301.84" y2="262.699" fill="none" stroke="gray" stroke-linecap="round" stroke-linejoin="round" stroke-width="4"/>
  </g>
  <path d="M296.124,237.59A23.8,23.8,0,0,0,319.6,209.938c-1.832-11.625-12.189-19.541-23.952-19.916-19.475-.621-35.555-16.287-35.555-36.027a36.03,36.03,0,0,1,36.03-36.03" fill="none" stroke="#4d4d4d" stroke-linecap="round" stroke-miterlimit="10" stroke-width="6"/>
</svg>
